<svg width="64" height="64" viewBox="0 0 24 24" fill="none" xmlns="http://www.w3.org/2000/svg">
  <defs>
    <linearGradient id="magicGradient" x1="0%" y1="100%" x2="100%" y2="0%">
      <stop offset="0%" stop-color="#06b6d4" />
      <stop offset="100%" stop-color="#0ea5e9" stop-opacity="0.8" />
    </linearGradient>
  </defs>

  <rect width="24" height="24" rx="5" fill="white"/>

  <g transform="translate(2, 2) scale(0.83)">
      <!-- Main Sheet Body -->
      <path
        d="M5 3C3.89543 3 3 3.89543 3 5V19C3 20.1046 3.89543 21 5 21H16C17.1046 21 18 20.1046 18 19V8L13 3H5Z"
        stroke="url(#magicGradient)"
        stroke-width="2"
        stroke-linecap="round"
        stroke-linejoin="round"
        fill="white" 
      />
      
      <!-- The "Magic" Transformation -->
      <path
        d="M15 3V6C15 7.10457 15.8954 8 17 8H20"
        stroke="url(#magicGradient)"
        stroke-width="2"
        stroke-linecap="round"
        stroke-linejoin="round"
        opacity="0.5"
      />

      <!-- Sparkles -->
      <rect x="19" y="4" width="2" height="2" rx="0.5" fill="url(#magicGradient)" />
      <rect x="21" y="7" width="1.5" height="1.5" rx="0.5" fill="url(#magicGradient)" />
      <rect x="17.5" y="2" width="1" height="1" rx="0.2" fill="url(#magicGradient)" opacity="0.8" />
      
      <!-- Star sparkle -->
      <path
          d="M21 1.5L21.5 2.5L22.5 3L21.5 3.5L21 4.5L20.5 3.5L19.5 3L20.5 2.5L21 1.5Z"
          fill="url(#magicGradient)"
      />
  </g>
</svg>
